<svg width="108" height="36" viewBox="0 0 108 36" fill="none" xmlns="http://www.w3.org/2000/svg">
<path d="M13.192 26L7.684 16.388H6.28V26H0.124V0.547999H10.636C12.652 0.547999 14.356 0.895999 15.748 1.592C17.14 2.288 18.184 3.248 18.88 4.472C19.576 5.672 19.924 7.052 19.924 8.612C19.924 10.46 19.408 12.032 18.376 13.328C17.368 14.624 15.892 15.512 13.948 15.992L19.996 26H13.192ZM6.28 12.176H10.096C11.32 12.176 12.22 11.912 12.796 11.384C13.372 10.832 13.66 10.028 13.66 8.972C13.66 7.964 13.36 7.172 12.76 6.596C12.184 6.02 11.296 5.732 10.096 5.732H6.28V12.176Z" fill="#A92A1D"/>
<path d="M34.9267 0.295998C38.1187 0.295998 40.7467 1.076 42.8107 2.636C44.8747 4.196 46.1587 6.308 46.6627 8.972H40.1467C39.7147 8.06 39.0547 7.34 38.1667 6.812C37.2787 6.26 36.2107 5.984 34.9627 5.984C33.0187 5.984 31.4587 6.644 30.2827 7.964C29.1067 9.26 28.5187 11.024 28.5187 13.256C28.5187 15.68 29.1307 17.54 30.3547 18.836C31.6027 20.132 33.3667 20.78 35.6467 20.78C37.1107 20.78 38.3947 20.384 39.4987 19.592C40.6027 18.776 41.3827 17.624 41.8387 16.136H34.0627V11.708H46.9867V17.792C46.5067 19.28 45.7387 20.66 44.6827 21.932C43.6267 23.204 42.2707 24.236 40.6147 25.028C38.9827 25.82 37.1107 26.216 34.9987 26.216C32.4307 26.216 30.1867 25.676 28.2667 24.596C26.3467 23.492 24.8587 21.956 23.8027 19.988C22.7707 18.02 22.2547 15.776 22.2547 13.256C22.2547 10.736 22.7707 8.492 23.8027 6.524C24.8587 4.556 26.3347 3.032 28.2307 1.952C30.1507 0.847998 32.3827 0.295998 34.9267 0.295998ZM55.0766 5.912L59.9006 18.224L64.4006 5.912H71.2046L58.6766 35.576H51.9086L56.6246 25.244L48.2006 5.912H55.0766ZM99.277 5.696C101.749 5.696 103.693 6.464 105.109 8C106.525 9.512 107.233 11.624 107.233 14.336V26H101.113V15.056C101.113 13.784 100.765 12.8 100.069 12.104C99.397 11.384 98.473 11.024 97.297 11.024C96.073 11.024 95.101 11.408 94.381 12.176C93.685 12.92 93.337 13.976 93.337 15.344V26H87.181V15.056C87.181 13.784 86.845 12.8 86.173 12.104C85.501 11.384 84.577 11.024 83.401 11.024C82.177 11.024 81.205 11.396 80.485 12.14C79.765 12.884 79.405 13.952 79.405 15.344V26H73.249V5.912H79.405V9.332C79.933 8.204 80.737 7.316 81.817 6.668C82.921 6.02 84.205 5.696 85.669 5.696C87.205 5.696 88.561 6.056 89.737 6.776C90.913 7.472 91.801 8.48 92.401 9.8C93.097 8.552 94.045 7.556 95.245 6.812C96.469 6.068 97.813 5.696 99.277 5.696Z" fill="white"/>
</svg>
