<svg width="23" height="19" viewBox="0 0 23 19" fill="none" xmlns="http://www.w3.org/2000/svg">
<path d="M22.9989 2.21994C22.1375 2.60097 21.2239 2.85121 20.2886 2.96238C21.2745 2.37276 22.0123 1.44479 22.3647 0.351419C21.4395 0.902047 20.4251 1.28793 19.3679 1.49668C18.6577 0.736835 17.7164 0.232903 16.6903 0.0632259C15.6641 -0.106451 14.6108 0.0676335 13.6938 0.558416C12.7768 1.0492 12.0477 1.82918 11.6197 2.77711C11.1917 3.72503 11.089 4.78778 11.3274 5.80015C9.45104 5.70611 7.61548 5.21852 5.93985 4.36904C4.26422 3.51957 2.78599 2.32719 1.60113 0.869322C1.18172 1.58971 0.961276 2.40863 0.962473 3.24222C0.962473 4.8783 1.79516 6.3237 3.06118 7.16994C2.31197 7.14636 1.57929 6.94404 0.9241 6.57983V6.6385C0.924324 7.72813 1.3014 8.78418 1.99137 9.62749C2.68126 10.4709 3.64172 11.0497 4.70966 11.2658C4.01415 11.4543 3.28491 11.482 2.57714 11.347C2.87822 12.285 3.46511 13.1052 4.25561 13.693C5.04612 14.2808 6.00066 14.6066 6.9855 14.6248C6.00664 15.3936 4.88589 15.9619 3.68727 16.2973C2.48865 16.6326 1.23565 16.7283 0 16.5791C2.15705 17.9664 4.66799 18.7028 7.23264 18.7004C15.9129 18.7004 20.6598 11.5095 20.6598 5.27321C20.6598 5.07011 20.6541 4.86476 20.6452 4.66392C21.5691 3.99613 22.3665 3.1689 23 2.22107L22.9989 2.21994Z" fill="#E74C3C"/>
</svg>
